<svg width="166" height="52" fill="none" xmlns="http://www.w3.org/2000/svg"><path d="M3.19 19.405C1.658 17.832.67 15.54.67 12.684a9.673 9.673 0 0 1 2.47-6.65 7.831 7.831 0 0 1 5.721-2.546c3.88 0 6.617 2.729 6.631 5.062 0 1.255-.796 2.224-1.874 2.224a1.992 1.992 0 0 1-1.364-.523 1.933 1.933 0 0 1-.591-1.456 2.147 2.147 0 0 1 .655-1.496A3.393 3.393 0 0 0 9.22 5.68a3.911 3.911 0 0 0-3.316 1.901 9.246 9.246 0 0 0-1.296 5.071 9.01 9.01 0 0 0 1.337 5.08 4.025 4.025 0 0 0 3.338 1.919c1.583 0 2.593-.723 3.102-1.614a2.097 2.097 0 0 1-.655-1.492 1.951 1.951 0 0 1 .587-1.46c.381-.344.878-.53 1.391-.523 1.078 0 1.87.969 1.87 2.22 0 2.355-2.73 5.056-6.627 5.066a8.003 8.003 0 0 1-5.762-2.442Zm0 0C1.658 17.832.67 15.54.67 12.684a9.673 9.673 0 0 1 2.47-6.65 7.831 7.831 0 0 1 5.721-2.546c3.88 0 6.617 2.729 6.631 5.062 0 1.255-.796 2.224-1.874 2.224a1.992 1.992 0 0 1-1.364-.523 1.933 1.933 0 0 1-.591-1.456 2.147 2.147 0 0 1 .655-1.496A3.393 3.393 0 0 0 9.22 5.68a3.911 3.911 0 0 0-3.316 1.901 9.246 9.246 0 0 0-1.296 5.071 9.01 9.01 0 0 0 1.337 5.08 4.025 4.025 0 0 0 3.338 1.919c1.583 0 2.593-.723 3.102-1.614a2.097 2.097 0 0 1-.655-1.492 1.951 1.951 0 0 1 .587-1.46c.381-.344.878-.53 1.391-.523 1.078 0 1.87.969 1.87 2.22 0 2.355-2.73 5.056-6.627 5.066a8.003 8.003 0 0 1-5.762-2.442Zm0 0C1.658 17.832.67 15.54.67 12.684a9.673 9.673 0 0 1 2.47-6.65 7.831 7.831 0 0 1 5.721-2.546c3.88 0 6.617 2.729 6.631 5.062 0 1.255-.796 2.224-1.874 2.224a1.992 1.992 0 0 1-1.364-.523 1.933 1.933 0 0 1-.591-1.456 2.147 2.147 0 0 1 .655-1.496A3.393 3.393 0 0 0 9.22 5.68a3.911 3.911 0 0 0-3.316 1.901 9.246 9.246 0 0 0-1.296 5.071 9.01 9.01 0 0 0 1.337 5.08 4.025 4.025 0 0 0 3.338 1.919c1.583 0 2.593-.723 3.102-1.614a2.097 2.097 0 0 1-.655-1.492 1.951 1.951 0 0 1 .587-1.46c.381-.344.878-.53 1.391-.523 1.078 0 1.87.969 1.87 2.22 0 2.355-2.73 5.056-6.627 5.066a8.003 8.003 0 0 1-5.762-2.442Zm55.893-6.08c.25 0 .318-.064.364-.145.054-.146.075-.3.063-.455a2.351 2.351 0 0 0-2.4-2.32c-1.82 0-2.552 1.456-2.666 2.92h4.639Zm-36.046 2.092c-1.4.027-2.31.682-2.31 1.974a1.978 1.978 0 0 0 2.128 2.055 3.003 3.003 0 0 0 2.242-1.137v-1.791a.91.91 0 0 0-.505-.724 2.924 2.924 0 0 0-1.532-.363l-.023-.014Zm53.036-.714c0 3.466 1.515 4.953 2.993 4.957 1.687 0 2.91-1.491 2.924-4.411a6.453 6.453 0 0 0-.91-3.575 2.58 2.58 0 0 0-2.173-1.269c-1.756 0-2.847 1.592-2.856 4.289l.022.009ZM32.07 21.297c-.546-.145-.91-.454-.91-.91.007-.197.057-.391.146-.568l.032-.068h.068c.315-.059.612-.19.869-.382.318-.268.454-.641.454-1.687v-5.276c-.027-.91-.236-1.2-.973-1.223a3.324 3.324 0 0 0-.587.064h-.113l-.041-.105a1.524 1.524 0 0 1-.118-.577c0-1.051 1.168-1.588 1.95-1.82a2.91 2.91 0 0 1 .86-.145c1.06 0 1.633.746 1.883 1.705.696-1.118 1.819-1.86 2.883-1.864a1.947 1.947 0 0 1 2.047 1.932 1.777 1.777 0 0 1-1.71 1.847 1.618 1.618 0 0 1-1.615-1.283c-.6.2-1.455.95-1.464 3.548v3.183c0 1.042.15 1.415.455 1.683.352.204.742.335 1.146.387h.068l.032.068c.096.19.15.397.159.61 0 .427-.318.722-.837.863a8.725 8.725 0 0 1-2.31.214 9.253 9.253 0 0 1-2.397-.223l.023.027Zm10.524-.027c-.546-.145-.91-.455-.91-.91.007-.197.056-.391.145-.568l.032-.068h.069c.313-.059.61-.19.864-.382.318-.268.454-.641.454-1.687v-5.249c0-.91-.231-1.2-.968-1.223a3.323 3.323 0 0 0-.587.064h-.114l-.04-.105a1.532 1.532 0 0 1-.123-.577c.022-1.051 1.173-1.588 1.955-1.82.278-.091.568-.14.86-.145 1.064 0 1.632.746 1.883 1.71.695-1.123 1.819-1.865 2.878-1.865a1.942 1.942 0 0 1 2.047 1.928 1.774 1.774 0 0 1-1.66 1.86 1.615 1.615 0 0 1-1.615-1.282c-.6.2-1.46.95-1.468 3.547v3.184c0 1.041.154 1.414.454 1.683.353.203.742.334 1.146.386h.069l.031.068c.095.19.148.398.155.61 0 .427-.314.723-.832.864a8.707 8.707 0 0 1-2.306.214 9.275 9.275 0 0 1-2.401-.223l-.018-.014Zm22.334.014c-.546-.15-.91-.455-.91-.91.007-.198.057-.392.146-.568l.027-.064h.073c.315-.059.612-.19.868-.382.314-.268.455-.641.455-1.687v-6.908l-1.864-.064-.032-.082a1.72 1.72 0 0 1-.141-.655 1.113 1.113 0 0 1 1.173-1.123h.814v-.805c0-1.856.346-2.91.819-3.638.723-1.128 1.987-1.901 3.906-1.901 2.415 0 4.434 1.128 4.448 2.928a1.701 1.701 0 0 1-1.683 1.792 1.66 1.66 0 0 1-1.637-1.614c.005-.323.1-.638.273-.91a1.915 1.915 0 0 0-1.2-.35 1.487 1.487 0 0 0-1.42.691 3.526 3.526 0 0 0-.35 1.779v1.992h3.184l.036.086c.091.211.138.439.137.668a1.237 1.237 0 0 1-1.115 1.274h-.718c-.532 0-1.06-.037-1.45-.046v6.895c0 1.037.177 1.41.49 1.683.41.204.851.335 1.306.386h.068l.032.068c.082.163.127.341.131.523 0 .455-.39.773-.973.91a9.848 9.848 0 0 1-2.51.232c-.81.03-1.62-.045-2.41-.223l.027.023Zm38.02-.023c-.546-.146-.91-.455-.91-.91.006-.199.056-.395.146-.573l.027-.063h.068c.313-.06.607-.192.86-.387.327-.264.454-.636.454-1.683v-5.239c-.022-.91-.227-1.2-.964-1.223a3.313 3.313 0 0 0-.586.064h-.114l-.046-.105a1.582 1.582 0 0 1-.113-.568c0-1.055 1.173-1.597 1.951-1.82.282-.092.576-.14.873-.145 1.055 0 1.628.755 1.869 1.733.691-1.137 1.792-1.888 2.874-1.892a1.937 1.937 0 0 1 2.047 1.933 1.766 1.766 0 0 1-1.021 1.682 1.77 1.77 0 0 1-.671.164 1.632 1.632 0 0 1-1.628-1.282c-.596.195-1.442.946-1.451 3.547v3.183c0 1.042.15 1.42.455 1.683.354.2.743.332 1.146.387h.068l.032.068c.099.19.155.4.164.614 0 .427-.319.718-.833.86a8.668 8.668 0 0 1-2.301.213 9.246 9.246 0 0 1-2.396-.223v-.018Zm-24.04.418a6.412 6.412 0 0 1-4.548-1.819 6.654 6.654 0 0 1-1.892-4.802A6.498 6.498 0 0 1 79.02 8.49a6.426 6.426 0 0 1 4.644 1.819 6.639 6.639 0 0 1 1.819 4.757 6.368 6.368 0 0 1-6.576 6.612ZM51.07 15.312a7.04 7.04 0 0 1 1.791-4.902 6.272 6.272 0 0 1 4.703-1.92 5.112 5.112 0 0 1 3.911 1.583 4.87 4.87 0 0 1 1.264 3.257 3.685 3.685 0 0 1-.427 1.787l-.041.068h-7.854c.132 2.274 1.587 3.884 4.12 3.893a4.266 4.266 0 0 0 3.156-1.364l.087-.11.109.082a1.164 1.164 0 0 1 .455 1.028c0 1.32-1.551 3.006-4.976 3.006a6.307 6.307 0 0 1-6.298-6.408Zm45.305 5.822a3.378 3.378 0 0 1-.455-1.201c-.127.145-.277.3-.505.518a4.598 4.598 0 0 1-3.183 1.27 4.17 4.17 0 0 1-3.238-1.365c-1.128-1.364-1.119-3.052-1.119-5.457V12.52c-.027-.941-.323-1.264-1.2-1.291h-.478l-.036-.1a1.28 1.28 0 0 1-.105-.5c.027-1.133 1.46-1.734 2.297-1.91.278-.05.559-.08.841-.092a1.819 1.819 0 0 1 1.505.614c.327.456.487 1.01.455 1.57v3.988c0 1.473.105 2.574.432 3.283a1.705 1.705 0 0 0 1.746 1.046 2.146 2.146 0 0 0 1.988-1.078 4.644 4.644 0 0 0 .487-2.283v-3.229c-.028-.941-.323-1.269-1.201-1.291a3.683 3.683 0 0 0-.373 0h-.105l-.04-.1a1.364 1.364 0 0 1-.1-.5c.027-1.133 1.455-1.733 2.3-1.91.277-.05.557-.08.837-.092a1.82 1.82 0 0 1 1.51.614c.329.455.49 1.01.455 1.57 0 .454-.046 1.268-.046 4.665v2.433c0 .978.35 1.415 1.256 1.433h.414l.036.1c.065.156.1.322.105.491-.037 1.1-1.47 1.542-2.302 1.71-.258.046-.52.075-.782.087a1.55 1.55 0 0 1-1.364-.605l-.032-.01ZM17.27 17.609a3.548 3.548 0 0 1 1.483-2.956 6.272 6.272 0 0 1 3.738-1.046 7.01 7.01 0 0 1 2.583.455v-1.4c0-1.42-.559-2.23-2.15-2.248a5.46 5.46 0 0 0-1.51.264c.051.202.079.41.081.619a1.82 1.82 0 0 1-.454 1.232 1.607 1.607 0 0 1-1.201.51 1.641 1.641 0 0 1-1.62-1.683c0-1.724 2.116-2.883 4.908-2.883 2.22 0 3.61.523 4.352 1.478.673.86.705 2.11.71 3.879v4.616c0 .91.518 1.132 1.628 1.305h.127v.127c-.064 1.215-.96 1.72-1.92 1.82a2.318 2.318 0 0 1-.25 0 2.433 2.433 0 0 1-2.273-1.406 5.913 5.913 0 0 1-3.67 1.437c-2.579 0-4.548-1.741-4.548-4.124" fill="#1E5BC6"/><path d="M48.227 34.827c.749.488 1.61.776 2.501.837.733 0 1.328-.332 1.328-1.119 0-.787-.664-1.028-1.487-1.273-1.273-.369-2.729-.787-2.729-2.602 0-1.814 1.501-2.778 3.184-2.778a4.493 4.493 0 0 1 3.183 1.241l-.995 1.224a3.352 3.352 0 0 0-2.12-.946c-.627 0-1.219.313-1.219 1.014 0 .805.733 1.032 1.551 1.273 1.278.405 2.693.91 2.693 2.729s-1.365 2.792-3.302 2.792a5.812 5.812 0 0 1-3.184-.91l.596-1.482ZM58.987 27.892c1.292 0 3.807.405 3.807 4.42 0 3.352-1.778 4.89-4.093 4.89s-3.793-1.502-3.793-4.662c.009-3.634 2.283-4.648 4.08-4.648Zm1.678 4.702c0-1.955-.454-3.16-1.782-3.16s-1.851 1.186-1.851 2.865c0 1.678.264 3.37 1.819 3.37 1.273-.005 1.814-1.256 1.814-3.075ZM66.341 24.817v9.26c0 1.082.227 1.482.941 1.482.382-.02.755-.115 1.1-.277l.456 1.396a4.367 4.367 0 0 1-2.079.523c-2.36 0-2.496-1.364-2.496-2.688v-9.696h2.078ZM76.665 28.155v7.318l.14 1.469h-1.782L74.9 35.91h-.055a2.97 2.97 0 0 1-2.533 1.273c-1.919 0-2.883-1.01-2.883-3.074v-5.954h2.078v5.572c0 1.064.196 1.85 1.365 1.85A1.769 1.769 0 0 0 74.6 33.9v-5.744h2.065ZM82.495 35.523c-1.556 0-2.22-1.2-2.22-3.02 0-1.992.819-2.951 1.992-2.951a2.515 2.515 0 0 1 1.87 1.082l1.31-1.082a3.81 3.81 0 0 0-3.216-1.66c-1.851 0-4.034 1.187-4.034 4.698 0 2.387.964 3.897 2.67 4.397l-1.178 2.67h1.578l1.087-2.474a4.88 4.88 0 0 0 2.933-1.01l-.787-1.4a3.238 3.238 0 0 1-2.005.75ZM89.985 27.892c1.292 0 3.807.405 3.807 4.42 0 3.352-1.779 4.89-4.093 4.89-2.315 0-3.793-1.502-3.793-4.662.009-3.634 2.278-4.648 4.08-4.648Zm-2.601-3.184a2.47 2.47 0 0 1 1.464-.505c.91 0 1.556.455 2.36.455.383-.01.756-.119 1.083-.318l.14 1.414a2.173 2.173 0 0 1-1.186.332c-.787 0-1.715-.4-2.41-.4-.458.002-.906.13-1.296.368l-.155-1.346Zm4.288 7.886c0-1.955-.454-3.16-1.782-3.16s-1.851 1.186-1.851 2.865c0 1.678.263 3.37 1.819 3.37 1.264-.005 1.814-1.256 1.814-3.075ZM101.846 30.32c0 2.688-3.338 3.038-4.944 3.056.069 1.137.714 2.238 2.201 2.238a3.766 3.766 0 0 0 2.197-.769l.65 1.365a5.079 5.079 0 0 1-3.074.977c-2.883 0-4.093-1.85-4.093-4.47 0-2.62 1.483-4.839 4.261-4.839 1.724.014 2.802.887 2.802 2.442Zm-2.897-.941c-1.396 0-2.06 1.364-2.115 2.651.946 0 3.16-.277 3.16-1.623a.956.956 0 0 0-.285-.755.964.964 0 0 0-.76-.273ZM103.433 34.827a5.223 5.223 0 0 0 2.497.837c.732 0 1.328-.332 1.328-1.119 0-.787-.664-1.028-1.483-1.273-1.278-.369-2.728-.787-2.728-2.601 0-1.815 1.505-2.78 3.183-2.78a4.484 4.484 0 0 1 3.179 1.242l-.996 1.224a3.352 3.352 0 0 0-2.115-.946c-.627 0-1.223.313-1.223 1.014 0 .805.732 1.032 1.555 1.273 1.274.405 2.688.91 2.688 2.729 0 1.82-1.364 2.792-3.302 2.792a5.78 5.78 0 0 1-3.183-.91l.6-1.482ZM38.854 39.248a1.16 1.16 0 0 1 1.205 1.173 1.142 1.142 0 0 1-1.205 1.15 1.118 1.118 0 0 1-1.205-1.15 1.16 1.16 0 0 1 1.205-1.173Zm-1.032 12.474v-8.786H39.9v8.786h-2.078ZM41.855 51.722v-7.276l-.14-1.52h1.75l.178 1.101a3.153 3.153 0 0 1 2.688-1.364c1.746 0 2.778.978 2.778 3.038v6.012h-2.078v-5.548c0-1.064-.191-1.887-1.31-1.887a1.775 1.775 0 0 0-1.783 1.764v5.68h-2.083ZM58.219 50.044l.159 1.678h-1.82l-.122-.91h-.068a2.824 2.824 0 0 1-2.392 1.174c-2.465 0-3.425-1.75-3.425-4.248 0-3.074 1.537-5.03 4.548-5.03a9.792 9.792 0 0 1 3.106.614l.014 6.722Zm-2.06-5.625a3.442 3.442 0 0 0-1.31-.228c-1.66 0-2.22 1.555-2.22 3.443 0 1.45.35 2.828 1.82 2.828a1.592 1.592 0 0 0 1.71-1.519V44.42ZM60.21 51.722v-7.276l-.14-1.52h1.746l.177 1.101a3.153 3.153 0 0 1 2.688-1.364c1.746 0 2.779.978 2.779 3.038v6.012H65.38v-5.548c0-1.064-.195-1.887-1.31-1.887a1.774 1.774 0 0 0-1.782 1.764v5.68H60.21ZM75.228 49.553l.786 1.4a4.811 4.811 0 0 1-3.038 1.01c-2.57 0-4.052-1.623-4.052-4.593 0-3.51 2.183-4.698 4.034-4.698a3.811 3.811 0 0 1 3.216 1.66l-1.329 1.082a2.513 2.513 0 0 0-1.869-1.082c-1.168 0-1.992.96-1.992 2.952 0 1.819.664 3.02 2.22 3.02a3.238 3.238 0 0 0 2.024-.751ZM83.35 45.1c0 2.688-3.334 3.039-4.944 3.057.073 1.137.719 2.237 2.201 2.237a3.765 3.765 0 0 0 2.201-.768l.646 1.364c-.89.652-1.97.996-3.074.978-2.883 0-4.07-1.851-4.07-4.47 0-2.62 1.487-4.84 4.261-4.84 1.715.014 2.779.887 2.779 2.443Zm-2.897-.94c-1.401 0-2.065 1.364-2.115 2.65.941 0 3.16-.277 3.16-1.623a.963.963 0 0 0-1.045-1.028ZM85.688 39.248a1.164 1.164 0 0 1 1.21 1.173 1.146 1.146 0 0 1-1.21 1.15 1.123 1.123 0 0 1-1.206-1.15 1.16 1.16 0 0 1 1.206-1.173ZM84.66 51.722v-8.786h2.078v8.786H84.66ZM90.79 51.722h-2.078V44.35l-.16-1.414h1.715l.21 1.273a2.274 2.274 0 0 1 2.11-1.537c.489-.009.972.112 1.4.35l-.368 1.765a2.565 2.565 0 0 0-1.242-.35c-.941 0-1.555.75-1.587 1.764v5.521ZM101.6 50.044l.159 1.678H99.94l-.123-.91h-.068a2.825 2.825 0 0 1-2.392 1.174c-2.465 0-3.425-1.75-3.425-4.248 0-3.074 1.538-5.03 4.548-5.03a9.839 9.839 0 0 1 3.111.614l.009 6.722Zm-2.06-5.625a3.459 3.459 0 0 0-1.31-.228c-1.66 0-2.22 1.555-2.22 3.443 0 1.45.35 2.828 1.82 2.828a1.596 1.596 0 0 0 1.71-1.496V44.42ZM103.433 49.608a5.218 5.218 0 0 0 2.497.836c.732 0 1.327-.332 1.327-1.118 0-.787-.664-1.028-1.487-1.274-1.273-.368-2.706-.787-2.706-2.601 0-1.815 1.501-2.779 3.184-2.779a4.486 4.486 0 0 1 3.161 1.242l-.996 1.223a3.353 3.353 0 0 0-2.129-.946c-.632 0-1.223.314-1.223 1.014 0 .805.732 1.033 1.555 1.274 1.274.404 2.688.91 2.688 2.728 0 1.82-1.364 2.793-3.302 2.793a5.81 5.81 0 0 1-3.183-.91l.614-1.483ZM31.477 42.422v9.296h2.074v-7.186h2.584V42.91H33.55v-.646c0-.96.332-1.451 1.206-1.451.578.03 1.142.186 1.655.455l.51-1.396a5.876 5.876 0 0 0-2.43-.61c-2.7-.018-3.014 1.76-3.014 3.161ZM133.28 1.019a.322.322 0 0 1 .223-.11.207.207 0 0 1 .187.148.199.199 0 0 1 .008.084.34.34 0 0 1-.114.232c-2.915 3.639-5.039 7.873-5.039 13.757 0 5.885 2.124 10.042 5.039 13.667a.358.358 0 0 1 .114.236.21.21 0 0 1-.195.232.315.315 0 0 1-.223-.114l-12.443-12.02a2.559 2.559 0 0 1-1.028-2.046 2.557 2.557 0 0 1 1.028-2.047l12.443-12.02Z" fill="#00B1FD"/><path d="M142.845 0c-4.871 0-6.772 6.904-6.772 15.13 0 8.228 1.901 15.04 6.772 15.04 2.924 0 5.417-1.714 5.421-3.12a1.172 1.172 0 0 0-.373-.86c-1.387-1.336-1.923-2.673-1.933-3.856a3.957 3.957 0 0 1 3.748-3.929c2.478 0 3.938 1.946 3.938 4.466 0 2.388-1.018 4.38-2.124 5.976a.348.348 0 0 0-.063.2.208.208 0 0 0 .186.227.335.335 0 0 0 .232-.123l12.42-12.02a2.543 2.543 0 0 0 0-4.092l-12.42-12.02a.353.353 0 0 0-.232-.119.204.204 0 0 0-.186.228c0 .073.022.144.063.205 1.106 1.591 2.124 3.583 2.124 5.966 0 2.52-1.46 4.47-3.938 4.47a3.962 3.962 0 0 1-3.748-3.933c0-1.178.546-2.515 1.933-3.852a1.189 1.189 0 0 0 .373-.86c0-1.41-2.497-3.124-5.421-3.124Z" fill="#1E5BC6"/></svg>